<svg width="162" height="123" viewBox="0 0 162 123" fill="none" xmlns="http://www.w3.org/2000/svg">
<path d="M1.67309 73.0408C3.50796 73.5383 4.25541 73.4993 5.91739 72.2411C11.5233 67.9972 16.2805 62.5696 21.0492 57.4476C30.5937 47.1961 40.788 37.2243 49.2215 26.0152C49.7094 25.3668 51.1085 23.7924 50.2979 23.8316C47.8807 23.9485 45.1283 27.4427 43.7469 28.9063C42.3046 30.4344 39.8568 33.2608 38.5185 34.9652C37.8158 35.86 36.7715 36.7204 36.7039 37.8562C36.6786 38.2807 37.5171 38.2779 37.9341 38.1945C41.7184 37.4376 45.8084 34.8009 48.9754 32.9968C62.8971 25.0664 76.3577 16.3314 89.9574 7.86935C93.0063 5.97229 97.5706 2.30732 101.276 1.07233C103.079 0.471283 98.5925 3.77986 97.0928 4.94755C84.2853 14.9198 71.429 24.6778 59.2632 35.4572C42.8319 50.0162 26.7028 65.4404 12.9143 82.575C8.47386 88.0931 1.83247 95.8735 1.02722 103.443C0.314788 110.14 13.7996 103.527 16.3436 102.105" stroke="white" stroke-width="2" stroke-linecap="round"/>
<path d="M47.3452 65.844C46.3714 64.2372 43.7463 63.6485 42.0244 64.4907C40.915 65.0334 39.7078 66.6123 40.2714 67.9354C40.9443 69.5152 45.4566 68.9053 46.6993 68.7042C47.2738 68.6113 49.0014 68.2659 49.3751 67.6432C49.393 67.6133 48.6118 67.6771 48.8061 68.2275C49.6279 70.5562 56.3613 69.4424 58.4172 69.4424" stroke="white" stroke-width="2" stroke-linecap="round"/>
<path d="M49.5598 78.2999C59.8152 69.7932 70.7998 61.7804 80.4078 52.5266C82.5764 50.438 83.8455 49.036 85.7439 46.806C85.8249 46.7109 88.2249 44.2017 88.2505 43.4844C88.2575 43.2887 87.8603 43.3969 87.6662 43.4229C86.0867 43.6348 84.6365 44.5443 83.3296 45.3759C77.6639 48.9813 72.4263 53.4899 67.6442 58.1857C66.7986 59.016 55.3121 69.743 60.5089 70.6417C66.5243 71.682 71.7759 65.8538 76.0713 62.5837C77.5655 61.4462 79.2315 60.5231 80.6846 59.339C82.6861 57.7082 84.5375 55.9046 86.7127 54.495C87.761 53.8157 89.0598 52.7437 90.265 52.3728C91.6206 51.9557 88.2284 54.3506 87.1433 55.2639C81.0009 60.4338 74.6169 65.2692 68.1517 70.0266C63.9941 73.0859 59.5079 76.0041 56.0493 79.8992C54.3374 81.8272 59.112 79.0515 59.3401 78.915C62.4819 77.0362 65.5369 75.1574 68.9974 73.9018C70.6418 73.3052 73.0656 72.5602 74.7488 72.0873C75.6408 71.8366 77.7627 71.0206 78.8547 71.1953C79.5581 71.3079 76.9714 74.9226 76.7786 75.1936C75.5254 76.9555 72.3054 81.4557 76.6556 80.6681C78.6036 80.3155 80.513 78.9388 82.1917 77.9616C82.3865 77.8482 84.3757 76.6655 82.8683 76.9774C82.1078 77.1348 81.0396 77.8685 81.2075 78.792C81.383 79.7576 84.1264 79.3448 84.6829 79.2226C86.2611 78.8758 87.2501 77.5705 88.7119 77.0389C89.0882 76.9021 88.5817 77.6227 88.5888 77.8078C88.594 77.9425 89.7554 79.6071 89.9421 79.7454C92.297 81.4913 98.0468 81.6029 100.768 80.5143" stroke="white" stroke-width="2" stroke-linecap="round"/>
<path d="M68.3821 55.6023C67.7948 55.3259 67.1849 55.3551 66.5368 55.3408C61.6899 55.2343 56.8224 55.5581 51.9893 55.8483C36.1247 56.8008 20.2945 57.8036 4.41021 58.3088C3.9077 58.3247 3.40493 58.3384 2.90317 58.3703C2.21813 58.4138 2.43315 58.4492 2.96469 58.5394C6.96612 59.2189 11.1239 59.3476 15.1593 59.4467C56.3269 60.4579 97.573 59.7543 138.751 59.7543C145.835 59.7543 152.919 59.7543 160.003 59.7543C165.816 59.7543 148.378 59.7554 142.565 59.7697C125.326 59.812 108.105 59.9756 90.8953 61.1383C75.2981 62.1921 59.0472 63.3208 43.716 66.7051C43.32 66.7925 42.877 66.8616 42.5781 67.1357C41.9716 67.6916 44.2006 67.4547 45.0232 67.474C51.2311 67.6192 57.4574 67.4211 63.6611 67.2125C67.8188 67.0728 71.9744 66.8586 76.1326 66.7358C78.2624 66.673 77.5761 66.8037 76.4094 67.2279" stroke="white" stroke-width="2" stroke-linecap="round"/>
<path d="M97.7233 81.3447C103.068 80.5487 106.953 75.7919 109.81 71.6259C110.506 70.6118 115.807 63.6736 114.547 62.0916C113.27 60.4894 101.859 74.8114 101.645 75.0705C94.1658 84.1066 86.8101 93.2551 79.5774 102.489C75.0433 108.278 70.3066 114.105 66.7215 120.558C62.9758 127.301 76.413 108.549 80.9614 102.32C88.7941 91.5932 96.4958 80.702 105.335 70.7647C109.046 66.5936 113.003 62.9407 117.791 60.0617C119.244 59.1882 123.906 57.2489 122.251 57.6166C118.773 58.3895 115.544 60.9367 112.578 62.7375C105.836 66.8312 98.9702 70.7081 92.1873 74.7322C88.7143 76.7926 88.5813 76.9141 85.5133 78.792C85.4744 78.8158 82.7128 80.1986 82.6222 80.5912C82.5647 80.8405 85.4789 80.7911 85.6209 80.7911C89.4737 80.7911 93.2683 80.4211 97.0774 79.8377C106.722 78.3604 116.163 76.4782 125.957 76.3623C129.978 76.3147 117.394 76.5486 114.178 78.9611C111.845 80.7105 116.936 80.5196 117.715 80.5143C118.936 80.506 120.189 80.4662 121.344 80.0222C121.631 79.9115 122.051 79.4378 122.359 79.4378C123.08 79.4378 123.947 79.9607 124.804 79.9607C125.445 79.9607 126.153 79.876 126.787 79.9607C127.95 80.1157 129.025 80.8521 130.109 81.2524C131.472 81.7558 132.896 81.6215 134.323 81.6215C135.559 81.6215 136.711 81.7159 137.86 82.1751" stroke="white" stroke-width="2" stroke-linecap="round"/>
</svg>
